<?xml version="1.0" encoding="iso-8859-1"?>
<!-- Generator: Adobe Illustrator 16.0.0, SVG Export Plug-In . SVG Version: 6.00 Build 0)  -->
<!DOCTYPE svg PUBLIC "-//W3C//DTD SVG 1.1//EN" "http://www.w3.org/Graphics/SVG/1.1/DTD/svg11.dtd">
<svg version="1.1" id="Capa_1" xmlns="http://www.w3.org/2000/svg" xmlns:xlink="http://www.w3.org/1999/xlink" x="0px" y="0px"
	 width="580.109px" height="580.109px" viewBox="0 0 580.109 580.109" style="enable-background:new 0 0 580.109 580.109;"
	 xml:space="preserve">
<g>
	<g>
		<path d="M99.371,389.22c39.786-32.662,52.853-61.169,162.125-61.169c12.748,0,24.131,0.403,34.456,1.138
			c19.939-62.528,78.563-107.945,147.615-107.945c25.648,0,49.835,6.304,71.163,17.381c-11.646-59.878-32.858-109.56-45.38-130.307
			c-19.896-32.956-92.938-54.633-116.696-30.881c-23.758,23.764-91.158,21.389-91.158,21.389s-67.406,2.375-91.157-21.377
			c-23.758-23.751-96.8-2.081-116.696,30.881C33.746,141.287-8.121,247.291,1.383,351.215
			C10.882,455.145,59.579,421.882,99.371,389.22z"/>
		<path d="M314.673,331.049c-4.945,14.125-7.662,29.297-7.662,45.111c0,75.416,61.139,136.549,136.55,136.549
			c75.41,0,136.549-61.139,136.549-136.549c0-47.657-24.425-89.585-61.426-114.017c-21.555-14.229-47.363-22.534-75.123-22.534
			C383.964,239.604,333.309,277.805,314.673,331.049z M400.102,368.682v67.338c0,3.378-2.741,6.12-6.119,6.12h-12.95
			c-3.378,0-6.12-2.742-6.12-6.12v-82.699c0-3.379-1.989-4.223-4.621-2.1c-6.628,5.361-14.021,9.688-22.172,12.975
			c-3.134,1.261-5.747-0.637-5.747-4.015v-10.618c0-3.379,2.619-6.959,5.68-8.391c1.205-0.563,2.423-1.193,3.666-1.879
			c3.855-2.13,7.882-4.822,12.08-8.091c5.863-4.565,10.325-9.712,13.391-15.435c1.592-2.98,5.221-5.588,8.599-5.588h8.201
			c3.378,0,6.12,2.742,6.12,6.12v52.382H400.102z M449.436,310.713h36.463c16.139,0,26.652,0.654,31.555,1.971
			c1.909,0.501,3.715,1.205,5.471,2.007c3.409,1.555,6.555,3.617,9.364,6.298c2.448,2.331,5.808,6.72,7.344,9.73
			c2.907,5.704,4.357,12.516,4.357,20.423c0,8.065-1.463,14.853-4.395,20.349c-2.931,5.496-6.646,9.816-11.162,12.956
			s-9.101,5.214-13.765,6.23c-0.098,0.018-0.227,0.03-0.324,0.049c-6.321,1.218-15.367,1.83-27.197,1.83h-11.181
			c-3.379,0-6.12,2.741-6.12,6.119v20.35v16.989c0,3.378-2.742,6.12-6.12,6.12h-14.297c-3.378,0-6.119-2.742-6.119-6.12v-31.567
			v-87.614C443.315,313.455,446.057,310.713,449.436,310.713z"/>
		<path d="M475.972,370.243h8.402c10.459,0,17.454-0.686,20.979-2.062c1.732-0.674,3.28-1.536,4.646-2.589
			c2.338-1.8,5.11-5.863,5.937-8.739c0.478-1.671,0.716-3.452,0.716-5.35c0-4.779-1.401-8.727-4.211-11.836
			c-2.809-3.108-6.364-5.049-10.667-5.826c-3.17-0.6-9.535-0.894-19.095-0.894h-6.701c-3.378,0-6.12,2.742-6.12,6.12v25.056
			C469.852,367.5,472.594,370.243,475.972,370.243z"/>
	</g>
</g>
<g>
</g>
<g>
</g>
<g>
</g>
<g>
</g>
<g>
</g>
<g>
</g>
<g>
</g>
<g>
</g>
<g>
</g>
<g>
</g>
<g>
</g>
<g>
</g>
<g>
</g>
<g>
</g>
<g>
</g>
</svg>
